<?xml version="1.0" encoding="UTF-8"?>
<svg version="1.1" xmlns="http://www.w3.org/2000/svg" width="512" height="512">
<path d="M0 0 C5.79093447 4.22322293 9.62230934 9.48648565 11.12109375 16.546875 C12.04175888 24.11678831 11.20294244 31.00295884 7.12109375 37.546875 C3.59731423 41.40140639 0.12800181 44.87790565 -4.87890625 46.546875 C-5.20890625 63.706875 -5.53890625 80.866875 -5.87890625 98.546875 C5.01109375 98.546875 15.90109375 98.546875 27.12109375 98.546875 C27.08628906 94.77894531 27.05148437 91.01101562 27.015625 87.12890625 C26.99222683 83.47844195 26.97401166 79.82798602 26.95629883 76.17749023 C26.94121512 73.64099385 26.92074544 71.10452352 26.89477539 68.56811523 C26.85837494 64.92164678 26.84136293 61.27552327 26.828125 57.62890625 C26.81264114 56.49540237 26.79715729 55.3618985 26.78120422 54.19404602 C26.78097763 53.13332382 26.78075104 52.07260162 26.78051758 50.97973633 C26.77052483 49.58408195 26.77052483 49.58408195 26.7603302 48.16023254 C27.28718169 44.34374023 28.835399 41.55706373 31.87109375 39.171875 C35.26221462 38.22989698 37.73100578 38.69935301 41.12109375 39.546875 C43.77059967 41.61623163 44.97642552 42.77422806 45.60211182 46.11590576 C45.59322937 47.08409241 45.58434692 48.05227905 45.57519531 49.04980469 C45.57474213 50.70106354 45.57474213 50.70106354 45.57427979 52.38568115 C45.55363464 53.56809387 45.5329895 54.75050659 45.51171875 55.96875 C45.50605896 57.18387268 45.50039917 58.39899536 45.49456787 59.65093994 C45.47217109 63.53331843 45.42196562 67.41477528 45.37109375 71.296875 C45.35103315 73.92837209 45.33278162 76.55988364 45.31640625 79.19140625 C45.2756967 85.64387019 45.19740493 92.09434059 45.12109375 98.546875 C56.01109375 98.546875 66.90109375 98.546875 78.12109375 98.546875 C78.08628906 94.1640625 78.05148437 89.78125 78.015625 85.265625 C77.99630997 81.75432592 77.98004942 78.24304201 77.9658432 74.73171997 C77.95005101 71.03425299 77.92897395 67.33699488 77.89477539 63.63964844 C77.86199933 60.07347058 77.84420266 56.50749432 77.83646202 52.94117737 C77.82828276 50.92942653 77.80489282 48.91775593 77.78120422 46.90612793 C77.77853596 32.29635386 77.77853596 32.29635386 82.46711731 27.0369873 C86.9665538 23.0197664 91.23855476 21.26905384 97.2109375 21.44921875 C98.16033203 21.45115234 99.10972656 21.45308594 100.08789062 21.45507812 C102.06491274 21.47457538 104.04185774 21.52136909 106.01757812 21.59570312 C108.96065935 21.57375472 111.31507593 21.44977262 114.12109375 20.546875 C116.18099115 18.42685001 117.48797784 16.38030211 118.86181641 13.76953125 C121.46962096 9.1666905 125.65855858 7.12637007 130.43359375 5.234375 C139.9540884 3.45936752 146.99029144 4.45159598 155.09765625 9.8671875 C161.27210966 14.67537888 164.02632389 20.21788208 165.05859375 27.921875 C165.47051342 35.55823195 163.83807681 41.82570135 159.05859375 47.859375 C153.20602919 53.88299573 147.03092206 56.79590621 138.62109375 57.171875 C131.35917028 56.85539541 125.59641585 54.78376544 120.2421875 49.796875 C117.58138831 46.82190915 115.92763756 44.15996262 114.12109375 40.546875 C108.18109375 40.216875 102.24109375 39.886875 96.12109375 39.546875 C96.12109375 59.016875 96.12109375 78.486875 96.12109375 98.546875 C101.07109375 98.546875 106.02109375 98.546875 111.12109375 98.546875 C121.6175052 101.41957708 129.13785463 105.80125323 134.8671875 115.21484375 C139.7454976 124.2875887 139.12109375 130.34670824 139.12109375 141.546875 C158.59109375 141.546875 178.06109375 141.546875 198.12109375 141.546875 C197.79109375 135.606875 197.46109375 129.666875 197.12109375 123.546875 C193.83855373 120.35383422 193.83855373 120.35383422 191.1875 119.3984375 C186.75444737 117.57158405 184.67801672 113.48788277 182.30859375 109.484375 C179.93165514 103.27410765 180.07621773 96.03463245 181.96484375 89.73046875 C185.07214498 82.85451502 189.63014916 77.7028268 196.47265625 74.41796875 C204.07049989 71.7285733 211.94153745 71.8965939 219.37109375 75.109375 C225.663595 78.68847736 230.5091606 84.50410892 232.6875 91.41796875 C234.32944856 99.47978828 233.36923936 107.56638506 228.83203125 114.5234375 C226.19916252 117.83212281 224.47746054 119.39816698 220.4609375 121.07421875 C218.55965705 122.02011473 218.55965705 122.02011473 217.12109375 123.546875 C216.17742494 127.12188327 216.32474056 130.62005609 216.43359375 134.296875 C216.56609231 141.6382767 216.40373938 147.34758087 212.12109375 153.546875 C208.05790723 157.61006152 203.76775041 159.33988786 198.04580688 159.78738403 C196.41365738 159.7807222 196.41365738 159.7807222 194.74853516 159.77392578 C193.50770172 159.77377472 192.26686829 159.77362366 190.98843384 159.77346802 C189.64983964 159.76325725 188.31124712 159.7528253 186.97265625 159.7421875 C185.59117844 159.73845313 184.20969797 159.73560816 182.82821655 159.73361206 C179.20815604 159.72600892 175.58825832 159.70638937 171.96826172 159.6842041 C168.26792644 159.66367379 164.56756385 159.65448514 160.8671875 159.64453125 C153.61834624 159.6242036 146.36995087 159.5850492 139.12109375 159.546875 C139.12109375 170.436875 139.12109375 181.326875 139.12109375 192.546875 C143.03339844 192.47726563 146.94570313 192.40765625 150.9765625 192.3359375 C154.76600221 192.28914423 158.55540973 192.25271265 162.3449707 192.21728516 C164.9785808 192.1871126 167.61209041 192.14616883 170.24536133 192.09423828 C174.03101382 192.02145099 177.81533796 191.98742152 181.6015625 191.9609375 C182.77881393 191.92996979 183.95606537 191.89900208 185.16899109 191.86709595 C193.13554848 191.8638161 193.13554848 191.8638161 195.99282837 193.84413147 C197.87008719 196.00915901 199.01866719 197.93765035 199.49609375 200.77734375 C198.94418376 203.65762402 198.45913818 206.07053967 196.74609375 208.484375 C193.50944982 210.60064218 190.66193223 210.66929979 186.9152832 210.66040039 C185.32397331 210.66028709 185.32397331 210.66028709 183.70051575 210.66017151 C182.5566893 210.65501022 181.41286285 210.64984894 180.234375 210.64453125 C179.06222946 210.6431163 177.89008392 210.64170135 176.68241882 210.64024353 C172.93278468 210.63463888 169.1832099 210.62208556 165.43359375 210.609375 C162.89388107 210.6043606 160.35416745 210.59979759 157.81445312 210.59570312 C151.58329197 210.58551816 145.35225944 210.56594351 139.12109375 210.546875 C139.12109375 221.436875 139.12109375 232.326875 139.12109375 243.546875 C146.45593775 243.56472754 153.78441853 243.56161126 161.11816406 243.50415039 C163.61292118 243.49100471 166.10777577 243.49028169 168.60253906 243.50219727 C172.18783103 243.51717164 175.77040015 243.48758552 179.35546875 243.44921875 C181.03065582 243.47060158 181.03065582 243.47060158 182.73968506 243.49241638 C188.20184775 243.60616815 188.20184775 243.60616815 192.67877197 240.9949646 C193.9390924 238.89404786 193.9390924 238.89404786 195.12109375 235.546875 C199.85800209 230.08815206 205.62959551 227.01966429 212.79296875 226.265625 C221.04281965 225.99214928 226.89223996 227.52935938 233.37109375 232.671875 C239.49495805 238.47025833 241.32989086 244.12247588 241.68359375 252.484375 C241.41272174 260.8543202 238.9590991 267.21474957 232.80859375 272.984375 C225.86433989 278.25603438 218.73717721 279.58032434 210.12109375 278.546875 C201.93063058 276.73214904 196.90412168 272.3280347 192.12109375 265.546875 C191.79109375 264.556875 191.46109375 263.566875 191.12109375 262.546875 C173.96109375 262.216875 156.80109375 261.886875 139.12109375 261.546875 C139.12109375 272.436875 139.12109375 283.326875 139.12109375 294.546875 C142.88902344 294.51207031 146.65695312 294.47726562 150.5390625 294.44140625 C154.1895268 294.41800808 157.83998273 294.39979291 161.49047852 294.38208008 C164.0269749 294.36699637 166.56344523 294.34652669 169.09985352 294.32055664 C172.74632197 294.28415619 176.39244548 294.26714418 180.0390625 294.25390625 C181.73931831 294.23068047 181.73931831 294.23068047 183.47392273 294.20698547 C184.53464493 294.20675888 185.59536713 294.20653229 186.68823242 294.20629883 C188.0838868 294.19630608 188.0838868 294.19630608 189.50773621 294.18611145 C193.32422852 294.71296294 196.11090502 296.26118025 198.49609375 299.296875 C199.43807177 302.68799587 198.96861574 305.15678703 198.12109375 308.546875 C196.05173712 311.19638092 194.89374069 312.40220677 191.55206299 313.02789307 C190.58387634 313.01901062 189.6156897 313.01012817 188.61816406 313.00097656 C187.51732483 313.00067444 186.4164856 313.00037231 185.2822876 313.00006104 C184.09987488 312.97941589 182.91746216 312.95877075 181.69921875 312.9375 C179.87653473 312.92901031 179.87653473 312.92901031 178.01702881 312.92034912 C174.13465032 312.89795234 170.25319347 312.84774687 166.37109375 312.796875 C163.73959666 312.7768144 161.10808511 312.75856287 158.4765625 312.7421875 C152.02409856 312.70147795 145.57362816 312.62318618 139.12109375 312.546875 C139.12109375 323.436875 139.12109375 334.326875 139.12109375 345.546875 C145.6953125 345.49466797 145.6953125 345.49466797 152.40234375 345.44140625 C155.91364283 345.42209122 159.42492674 345.40583067 162.93624878 345.39162445 C166.63371576 345.37583226 170.33097387 345.3547552 174.02832031 345.32055664 C177.59449817 345.28778058 181.16047443 345.26998391 184.72679138 345.26224327 C186.73854222 345.25406401 188.75021282 345.23067407 190.76184082 345.20698547 C205.37161489 345.20431721 205.37161489 345.20431721 210.63098145 349.89289856 C214.64820235 354.39233505 216.39891491 358.66433601 216.21875 364.63671875 C216.21681641 365.58611328 216.21488281 366.53550781 216.21289062 367.51367188 C216.19339337 369.49069399 216.14659966 371.46763899 216.07226562 373.44335938 C216.09421403 376.3864406 216.21819613 378.74085718 217.12109375 381.546875 C219.24111874 383.6067724 221.28766664 384.91375909 223.8984375 386.28759766 C228.50127825 388.89540221 230.54159868 393.08433983 232.43359375 397.859375 C234.20860123 407.37986965 233.21637277 414.41607269 227.80078125 422.5234375 C222.99258987 428.69789091 217.45008667 431.45210514 209.74609375 432.484375 C202.1097368 432.89629467 195.8422674 431.26385806 189.80859375 426.484375 C183.78497302 420.63181044 180.87206254 414.45670331 180.49609375 406.046875 C180.81257334 398.78495153 182.88420331 393.0221971 187.87109375 387.66796875 C190.8460596 385.00716956 193.50800613 383.35341881 197.12109375 381.546875 C197.45109375 375.606875 197.78109375 369.666875 198.12109375 363.546875 C178.65109375 363.546875 159.18109375 363.546875 139.12109375 363.546875 C139.12109375 368.496875 139.12109375 373.446875 139.12109375 378.546875 C136.24839167 389.04328645 131.86671552 396.56363588 122.453125 402.29296875 C113.38038005 407.17127885 107.32126051 406.546875 96.12109375 406.546875 C96.12109375 426.016875 96.12109375 445.486875 96.12109375 465.546875 C102.06109375 465.216875 108.00109375 464.886875 114.12109375 464.546875 C117.31413453 461.26433498 117.31413453 461.26433498 118.26953125 458.61328125 C120.0963847 454.18022862 124.18008598 452.10379797 128.18359375 449.734375 C134.3938611 447.35743639 141.6333363 447.50199898 147.9375 449.390625 C154.73793832 452.46380018 159.95153599 457.04504264 163.21484375 463.81640625 C166.22909891 472.00792376 165.62754956 479.60139535 162.12109375 487.546875 C157.57543995 494.55776432 151.88835762 497.95778704 144.12109375 500.546875 C135.66605189 501.34048904 128.06595269 500.17400744 121.30859375 494.796875 C118.72639999 492.5781011 117.95416978 491.14685515 116.59375 487.88671875 C115.64785402 485.9854383 115.64785402 485.9854383 114.12109375 484.546875 C110.54608548 483.60320619 107.04791266 483.75052181 103.37109375 483.859375 C96.02969205 483.99187356 90.32038788 483.82952063 84.12109375 479.546875 C80.05790723 475.48368848 78.32808089 471.19353166 77.88058472 465.47158813 C77.88502594 464.38348846 77.88946716 463.29538879 77.89404297 462.17431641 C77.89419403 460.93348297 77.89434509 459.69264954 77.89450073 458.41421509 C77.9047115 457.07562089 77.91514345 455.73702837 77.92578125 454.3984375 C77.92951562 453.01695969 77.93236059 451.63547922 77.93435669 450.2539978 C77.94195983 446.63393729 77.96157938 443.01403957 77.98376465 439.39404297 C78.00429496 435.69370769 78.01348361 431.9933451 78.0234375 428.29296875 C78.04376515 421.04412749 78.08291955 413.79573212 78.12109375 406.546875 C67.23109375 406.546875 56.34109375 406.546875 45.12109375 406.546875 C45.19070313 410.45917969 45.2603125 414.37148438 45.33203125 418.40234375 C45.37882452 422.19178346 45.4152561 425.98119098 45.45068359 429.77075195 C45.48085615 432.40436205 45.52179992 435.03787166 45.57373047 437.67114258 C45.64651776 441.45679507 45.68054723 445.24111921 45.70703125 449.02734375 C45.73799896 450.20459518 45.76896667 451.38184662 45.8008728 452.59477234 C45.80415265 460.56132973 45.80415265 460.56132973 43.82383728 463.41860962 C41.65880974 465.29586844 39.7303184 466.44444844 36.890625 466.921875 C34.01034473 466.36996501 31.59742908 465.88491943 29.18359375 464.171875 C27.06732657 460.93523107 26.99866896 458.08771348 27.00756836 454.34106445 C27.00764389 453.28019119 27.00771942 452.21931793 27.00779724 451.126297 C27.01295853 449.98247055 27.01811981 448.8386441 27.0234375 447.66015625 C27.02555992 445.90193794 27.02555992 445.90193794 27.02772522 444.10820007 C27.03332987 440.35856593 27.04588319 436.60899115 27.05859375 432.859375 C27.06360815 430.31966232 27.06817116 427.7799487 27.07226562 425.24023438 C27.08245059 419.00907322 27.10202524 412.77804069 27.12109375 406.546875 C16.23109375 406.546875 5.34109375 406.546875 -5.87890625 406.546875 C-5.89675879 413.881719 -5.89364251 421.21019978 -5.83618164 428.54394531 C-5.82303596 431.03870243 -5.82231294 433.53355702 -5.83422852 436.02832031 C-5.84920289 439.61361228 -5.81961677 443.1961814 -5.78125 446.78125 C-5.80263283 448.45643707 -5.80263283 448.45643707 -5.82444763 450.16546631 C-5.9381994 455.627629 -5.9381994 455.627629 -3.32699585 460.10455322 C-1.22607911 461.36487365 -1.22607911 461.36487365 2.12109375 462.546875 C7.57981669 467.28378334 10.64830446 473.05537676 11.40234375 480.21875 C11.67581947 488.4686009 10.13860937 494.31802121 4.99609375 500.796875 C-0.80228958 506.9207393 -6.45450713 508.75567211 -14.81640625 509.109375 C-23.18635145 508.83850299 -29.54678082 506.38488035 -35.31640625 500.234375 C-40.58806563 493.29012114 -41.91235559 486.16295846 -40.87890625 477.546875 C-39.06418029 469.35641183 -34.66006595 464.32990293 -27.87890625 459.546875 C-26.88890625 459.216875 -25.89890625 458.886875 -24.87890625 458.546875 C-24.54890625 441.386875 -24.21890625 424.226875 -23.87890625 406.546875 C-34.76890625 406.546875 -45.65890625 406.546875 -56.87890625 406.546875 C-56.84410156 410.31480469 -56.80929688 414.08273437 -56.7734375 417.96484375 C-56.75003933 421.61530805 -56.73182416 425.26576398 -56.71411133 428.91625977 C-56.69902762 431.45275615 -56.67855794 433.98922648 -56.65258789 436.52563477 C-56.61618744 440.17210322 -56.59917543 443.81822673 -56.5859375 447.46484375 C-56.57045364 448.59834763 -56.55496979 449.7318515 -56.53901672 450.89970398 C-56.53867683 452.49078728 -56.53867683 452.49078728 -56.53833008 454.11401367 C-56.52833733 455.50966805 -56.52833733 455.50966805 -56.5181427 456.93351746 C-57.04499419 460.75000977 -58.5932115 463.53668627 -61.62890625 465.921875 C-65.02002712 466.86385302 -67.48881828 466.39439699 -70.87890625 465.546875 C-73.52841217 463.47751837 -74.73423802 462.31952194 -75.35992432 458.97784424 C-75.35104187 458.00965759 -75.34215942 457.04147095 -75.33300781 456.04394531 C-75.33270569 454.94310608 -75.33240356 453.84226685 -75.33209229 452.70806885 C-75.31144714 451.52565613 -75.290802 450.34324341 -75.26953125 449.125 C-75.26387146 447.90987732 -75.25821167 446.69475464 -75.25238037 445.44281006 C-75.22998359 441.56043157 -75.17977812 437.67897472 -75.12890625 433.796875 C-75.10884565 431.16537791 -75.09059412 428.53386636 -75.07421875 425.90234375 C-75.0335092 419.44987981 -74.95521743 412.99940941 -74.87890625 406.546875 C-85.76890625 406.546875 -96.65890625 406.546875 -107.87890625 406.546875 C-107.84410156 410.9296875 -107.80929688 415.3125 -107.7734375 419.828125 C-107.75412247 423.33942408 -107.73786192 426.85070799 -107.7236557 430.36203003 C-107.70786351 434.05949701 -107.68678645 437.75675512 -107.65258789 441.45410156 C-107.61981183 445.02027942 -107.60201516 448.58625568 -107.59427452 452.15257263 C-107.58609526 454.16432347 -107.56270532 456.17599407 -107.53901672 458.18762207 C-107.53634846 472.79739614 -107.53634846 472.79739614 -112.22492981 478.0567627 C-116.7243663 482.0739836 -120.99636726 483.82469616 -126.96875 483.64453125 C-127.91814453 483.64259766 -128.86753906 483.64066406 -129.84570312 483.63867188 C-131.82272524 483.61917462 -133.79967024 483.57238091 -135.77539062 483.49804688 C-138.71847185 483.51999528 -141.07288843 483.64397738 -143.87890625 484.546875 C-145.93880365 486.66689999 -147.24579034 488.71344789 -148.61962891 491.32421875 C-151.22743346 495.9270595 -155.41637108 497.96737993 -160.19140625 499.859375 C-169.7119009 501.63438248 -176.74810394 500.64215402 -184.85546875 495.2265625 C-190.09970601 491.1427522 -192.77888736 486.30527286 -194.62890625 479.984375 C-195.47760443 471.70956779 -194.28630372 464.34018284 -189.37109375 457.42578125 C-183.50435404 451.08151622 -177.02211402 448.36753234 -168.44140625 447.984375 C-161.12869049 448.24066177 -155.39119456 450.2755545 -150 455.296875 C-147.33920081 458.27184085 -145.68545006 460.93378738 -143.87890625 464.546875 C-137.93890625 464.876875 -131.99890625 465.206875 -125.87890625 465.546875 C-125.87890625 446.076875 -125.87890625 426.606875 -125.87890625 406.546875 C-130.82890625 406.546875 -135.77890625 406.546875 -140.87890625 406.546875 C-151.3753177 403.67417292 -158.89566713 399.29249677 -164.625 389.87890625 C-169.5033101 380.8061613 -168.87890625 374.74704176 -168.87890625 363.546875 C-188.34890625 363.546875 -207.81890625 363.546875 -227.87890625 363.546875 C-227.38390625 372.456875 -227.38390625 372.456875 -226.87890625 381.546875 C-223.59636623 384.73991578 -223.59636623 384.73991578 -220.9453125 385.6953125 C-216.51225987 387.52216595 -214.43582922 391.60586723 -212.06640625 395.609375 C-209.68946764 401.81964235 -209.83403023 409.05911755 -211.72265625 415.36328125 C-214.82995748 422.23923498 -219.38796166 427.3909232 -226.23046875 430.67578125 C-233.82831239 433.3651767 -241.69934995 433.1971561 -249.12890625 429.984375 C-255.37523046 426.43153762 -260.28431204 420.6179253 -262.44140625 413.7421875 C-264.25058827 404.66397056 -262.73006511 397.49625145 -257.74609375 389.796875 C-255.46725291 386.77854276 -253.77232768 385.50288837 -250.25390625 384.05078125 C-248.33628936 383.09062172 -248.33628936 383.09062172 -246.87890625 381.546875 C-245.93277011 377.97262593 -246.08255711 374.47355717 -246.19140625 370.796875 C-246.32390481 363.4554733 -246.16155188 357.74616913 -241.87890625 351.546875 C-237.81571973 347.48368848 -233.52556291 345.75386214 -227.80361938 345.30636597 C-226.71551971 345.31080719 -225.62742004 345.31524841 -224.50634766 345.31982422 C-223.26551422 345.31997528 -222.02468079 345.32012634 -220.74624634 345.32028198 C-219.40765214 345.33049275 -218.06905962 345.3409247 -216.73046875 345.3515625 C-215.34899094 345.35529687 -213.96751047 345.35814184 -212.58602905 345.36013794 C-208.96596854 345.36774108 -205.34607082 345.38736063 -201.72607422 345.4095459 C-198.02573894 345.43007621 -194.32537635 345.43926486 -190.625 345.44921875 C-183.37615874 345.4695464 -176.12776337 345.5087008 -168.87890625 345.546875 C-168.87890625 334.656875 -168.87890625 323.766875 -168.87890625 312.546875 C-172.79121094 312.61648438 -176.70351562 312.68609375 -180.734375 312.7578125 C-184.52381471 312.80460577 -188.31322223 312.84103735 -192.1027832 312.87646484 C-194.7363933 312.9066374 -197.36990291 312.94758117 -200.00317383 312.99951172 C-203.78882632 313.07229901 -207.57315046 313.10632848 -211.359375 313.1328125 C-212.53662643 313.16378021 -213.71387787 313.19474792 -214.92680359 313.22665405 C-222.89336098 313.2299339 -222.89336098 313.2299339 -225.75064087 311.24961853 C-227.62789969 309.08459099 -228.77647969 307.15609965 -229.25390625 304.31640625 C-228.70199626 301.43612598 -228.21695068 299.02321033 -226.50390625 296.609375 C-223.26726232 294.49310782 -220.41974473 294.42445021 -216.6730957 294.43334961 C-215.08178581 294.43346291 -215.08178581 294.43346291 -213.45832825 294.43357849 C-212.3145018 294.43873978 -211.17067535 294.44390106 -209.9921875 294.44921875 C-208.23396919 294.45134117 -208.23396919 294.45134117 -206.44023132 294.45350647 C-202.69059718 294.45911112 -198.9410224 294.47166444 -195.19140625 294.484375 C-192.65169357 294.4893894 -190.11197995 294.49395241 -187.57226562 294.49804688 C-181.34110447 294.50823184 -175.11007194 294.52780649 -168.87890625 294.546875 C-168.87890625 283.656875 -168.87890625 272.766875 -168.87890625 261.546875 C-176.21375025 261.52902246 -183.54223103 261.53213874 -190.87597656 261.58959961 C-193.37073368 261.60274529 -195.86558827 261.60346831 -198.36035156 261.59155273 C-201.94564353 261.57657836 -205.52821265 261.60616448 -209.11328125 261.64453125 C-210.78846832 261.62314842 -210.78846832 261.62314842 -212.49749756 261.60133362 C-217.95966025 261.48758185 -217.95966025 261.48758185 -222.43658447 264.0987854 C-223.6969049 266.19970214 -223.6969049 266.19970214 -224.87890625 269.546875 C-229.61581459 275.00559794 -235.38740801 278.07408571 -242.55078125 278.828125 C-250.80063215 279.10160072 -256.65005246 277.56439062 -263.12890625 272.421875 C-269.25277055 266.62349167 -271.08770336 260.97127412 -271.44140625 252.609375 C-271.17053424 244.2394298 -268.7169116 237.87900043 -262.56640625 232.109375 C-255.62215239 226.83771562 -248.49498971 225.51342566 -239.87890625 226.546875 C-231.68844308 228.36160096 -226.66193418 232.7657153 -221.87890625 239.546875 C-221.54890625 240.536875 -221.21890625 241.526875 -220.87890625 242.546875 C-203.71890625 242.876875 -186.55890625 243.206875 -168.87890625 243.546875 C-168.87890625 232.656875 -168.87890625 221.766875 -168.87890625 210.546875 C-172.64683594 210.58167969 -176.41476563 210.61648437 -180.296875 210.65234375 C-183.9473393 210.67574192 -187.59779523 210.69395709 -191.24829102 210.71166992 C-193.7847874 210.72675363 -196.32125773 210.74722331 -198.85766602 210.77319336 C-202.50413447 210.80959381 -206.15025798 210.82660582 -209.796875 210.83984375 C-211.49713081 210.86306953 -211.49713081 210.86306953 -213.23173523 210.88676453 C-214.29245743 210.88699112 -215.35317963 210.88721771 -216.44604492 210.88745117 C-217.8416993 210.89744392 -217.8416993 210.89744392 -219.26554871 210.90763855 C-223.08204102 210.38078706 -225.86871752 208.83256975 -228.25390625 205.796875 C-229.19588427 202.40575413 -228.72642824 199.93696297 -227.87890625 196.546875 C-225.80954962 193.89736908 -224.65155319 192.69154323 -221.30987549 192.06585693 C-219.85759552 192.0791806 -219.85759552 192.0791806 -218.37597656 192.09277344 C-216.72471771 192.09322662 -216.72471771 192.09322662 -215.0401001 192.09368896 C-213.85768738 192.11433411 -212.67527466 192.13497925 -211.45703125 192.15625 C-210.24190857 192.16190979 -209.02678589 192.16756958 -207.77484131 192.17340088 C-203.89246282 192.19579766 -200.01100597 192.24600313 -196.12890625 192.296875 C-193.49740916 192.3169356 -190.86589761 192.33518713 -188.234375 192.3515625 C-181.78223744 192.39567347 -175.33063769 192.46261981 -168.87890625 192.546875 C-168.74226563 191.75796875 -168.605625 190.9690625 -168.46484375 190.15625 C-167.81392879 187.25750872 -167.19942758 186.33189141 -164.87890625 184.546875 C-163.88890625 184.216875 -162.89890625 183.886875 -161.87890625 183.546875 C-161.54890625 178.266875 -161.21890625 172.986875 -160.87890625 167.546875 C-162.52890625 167.216875 -164.17890625 166.886875 -165.87890625 166.546875 C-168.32537787 164.01604229 -168.87890625 163.1215823 -168.87890625 159.546875 C-170.01737 159.55686775 -170.01737 159.55686775 -171.17883301 159.56706238 C-178.3577999 159.62736135 -185.53664269 159.67294429 -192.71579742 159.70231152 C-196.4060198 159.71791746 -200.0960316 159.73906182 -203.78613281 159.77319336 C-207.35231067 159.80596942 -210.91828693 159.82376609 -214.48460388 159.83150673 C-216.49635472 159.83968599 -218.50802532 159.86307593 -220.51965332 159.88676453 C-235.12942739 159.88943279 -235.12942739 159.88943279 -240.38879395 155.20085144 C-244.40601485 150.70141495 -246.15672741 146.42941399 -245.9765625 140.45703125 C-245.97462891 139.50763672 -245.97269531 138.55824219 -245.97070312 137.58007812 C-245.95120587 135.60305601 -245.90441216 133.62611101 -245.83007812 131.65039062 C-245.85202636 128.70733198 -245.97593331 126.35284882 -246.87890625 123.546875 C-248.99927057 121.48902173 -251.04552309 120.18368344 -253.65625 118.81225586 C-258.03914116 116.31703125 -260.07916836 112.2225163 -262.19140625 107.796875 C-263.98940502 99.29724445 -263.43136457 92.02591366 -258.87890625 84.546875 C-254.65165847 78.23101663 -249.73253085 74.60201078 -242.2734375 72.98046875 C-234.70882534 71.96687474 -228.16524548 72.83219349 -221.65234375 76.95703125 C-215.44050025 81.87764885 -211.58373527 87.84416331 -210.40234375 95.7265625 C-210.06139404 103.35306913 -211.37630089 109.3220231 -215.87890625 115.546875 C-219.22749936 119.14212787 -222.47715612 121.34599993 -226.87890625 123.546875 C-227.20890625 129.486875 -227.53890625 135.426875 -227.87890625 141.546875 C-208.40890625 141.546875 -188.93890625 141.546875 -168.87890625 141.546875 C-168.87890625 136.596875 -168.87890625 131.646875 -168.87890625 126.546875 C-166.00620417 116.05046355 -161.62452802 108.53011412 -152.2109375 102.80078125 C-143.13819255 97.92247115 -137.07907301 98.546875 -125.87890625 98.546875 C-125.87890625 79.076875 -125.87890625 59.606875 -125.87890625 39.546875 C-131.81890625 39.876875 -137.75890625 40.206875 -143.87890625 40.546875 C-147.07194703 43.82941502 -147.07194703 43.82941502 -148.02734375 46.48046875 C-149.8541972 50.91352138 -153.93789848 52.98995203 -157.94140625 55.359375 C-164.1516736 57.73631361 -171.3911488 57.59175102 -177.6953125 55.703125 C-184.49575082 52.62994982 -189.70934849 48.04870736 -192.97265625 41.27734375 C-195.98691141 33.08582624 -195.38536206 25.49235465 -191.87890625 17.546875 C-187.33325245 10.53598568 -181.64617012 7.13596296 -173.87890625 4.546875 C-164.13817339 3.64719808 -157.5637251 6.0296912 -149.73828125 11.65625 C-147.87890625 13.546875 -147.87890625 13.546875 -146.31640625 17.20703125 C-145.38632829 19.10657176 -145.38632829 19.10657176 -143.87890625 20.546875 C-140.30432207 21.49135371 -136.80544294 21.34321984 -133.12890625 21.234375 C-125.78750455 21.10187644 -120.07820038 21.26422937 -113.87890625 25.546875 C-109.81571973 29.61006152 -108.08589339 33.90021834 -107.63839722 39.62216187 C-107.64283844 40.71026154 -107.64727966 41.79836121 -107.65185547 42.91943359 C-107.65208206 44.78068375 -107.65208206 44.78068375 -107.65231323 46.67953491 C-107.662524 48.01812911 -107.67295595 49.35672163 -107.68359375 50.6953125 C-107.68732812 52.07679031 -107.69017309 53.45827078 -107.69216919 54.8397522 C-107.69977233 58.45981271 -107.71939188 62.07971043 -107.74157715 65.69970703 C-107.76210746 69.40004231 -107.77129611 73.1004049 -107.78125 76.80078125 C-107.80157765 84.04962251 -107.84073205 91.29801788 -107.87890625 98.546875 C-96.98890625 98.546875 -86.09890625 98.546875 -74.87890625 98.546875 C-74.94851562 94.63457031 -75.018125 90.72226563 -75.08984375 86.69140625 C-75.13663702 82.90196654 -75.1730686 79.11255902 -75.20849609 75.32299805 C-75.23866865 72.68938795 -75.27961242 70.05587834 -75.33154297 67.42260742 C-75.40433026 63.63695493 -75.43835973 59.85263079 -75.46484375 56.06640625 C-75.49581146 54.88915482 -75.52677917 53.71190338 -75.5586853 52.49897766 C-75.56196515 44.53242027 -75.56196515 44.53242027 -73.58164978 41.67514038 C-71.41662224 39.79788156 -69.4881309 38.64930156 -66.6484375 38.171875 C-63.76815723 38.72378499 -61.35524158 39.20883057 -58.94140625 40.921875 C-56.82513907 44.15851893 -56.75648146 47.00603652 -56.76538086 50.75268555 C-56.76545639 51.81355881 -56.76553192 52.87443207 -56.76560974 53.967453 C-56.77077103 55.11127945 -56.77593231 56.2551059 -56.78125 57.43359375 C-56.78337242 59.19181206 -56.78337242 59.19181206 -56.78553772 60.98554993 C-56.79114237 64.73518407 -56.80369569 68.48475885 -56.81640625 72.234375 C-56.82142065 74.77408768 -56.82598366 77.3138013 -56.83007812 79.85351562 C-56.84026309 86.08467678 -56.85983774 92.31570931 -56.87890625 98.546875 C-45.98890625 98.546875 -35.09890625 98.546875 -23.87890625 98.546875 C-23.86105371 91.212031 -23.86416999 83.88355022 -23.92163086 76.54980469 C-23.93477654 74.05504757 -23.93549956 71.56019298 -23.92358398 69.06542969 C-23.90860961 65.48013772 -23.93819573 61.8975686 -23.9765625 58.3125 C-23.95517967 56.63731293 -23.95517967 56.63731293 -23.93336487 54.92828369 C-23.8196131 49.466121 -23.8196131 49.466121 -26.43081665 44.98919678 C-28.53173339 43.72887635 -28.53173339 43.72887635 -31.87890625 42.546875 C-37.33762919 37.80996666 -40.40611696 32.03837324 -41.16015625 24.875 C-41.43363197 16.6251491 -39.89642187 10.77572879 -34.75390625 4.296875 C-25.64422125 -5.32416446 -11.40830345 -6.66889331 0 0 Z " fill="#DAE2E8" transform="translate(270.87890625,3.453125)"/>
<path d="M0 0 C5.79093447 4.22322293 9.62230934 9.48648565 11.12109375 16.546875 C12.04175888 24.11678831 11.20294244 31.00295884 7.12109375 37.546875 C3.59731423 41.40140639 0.12800181 44.87790565 -4.87890625 46.546875 C-5.20890625 63.706875 -5.53890625 80.866875 -5.87890625 98.546875 C5.01109375 98.546875 15.90109375 98.546875 27.12109375 98.546875 C27.08628906 94.77894531 27.05148437 91.01101562 27.015625 87.12890625 C26.99222683 83.47844195 26.97401166 79.82798602 26.95629883 76.17749023 C26.94121512 73.64099385 26.92074544 71.10452352 26.89477539 68.56811523 C26.85837494 64.92164678 26.84136293 61.27552327 26.828125 57.62890625 C26.81264114 56.49540237 26.79715729 55.3618985 26.78120422 54.19404602 C26.78097763 53.13332382 26.78075104 52.07260162 26.78051758 50.97973633 C26.77052483 49.58408195 26.77052483 49.58408195 26.7603302 48.16023254 C27.28718169 44.34374023 28.835399 41.55706373 31.87109375 39.171875 C35.26221462 38.22989698 37.73100578 38.69935301 41.12109375 39.546875 C43.77059967 41.61623163 44.97642552 42.77422806 45.60211182 46.11590576 C45.59322937 47.08409241 45.58434692 48.05227905 45.57519531 49.04980469 C45.57474213 50.70106354 45.57474213 50.70106354 45.57427979 52.38568115 C45.55363464 53.56809387 45.5329895 54.75050659 45.51171875 55.96875 C45.50605896 57.18387268 45.50039917 58.39899536 45.49456787 59.65093994 C45.47217109 63.53331843 45.42196562 67.41477528 45.37109375 71.296875 C45.35103315 73.92837209 45.33278162 76.55988364 45.31640625 79.19140625 C45.2756967 85.64387019 45.19740493 92.09434059 45.12109375 98.546875 C56.01109375 98.546875 66.90109375 98.546875 78.12109375 98.546875 C78.08628906 94.1640625 78.05148437 89.78125 78.015625 85.265625 C77.99630997 81.75432592 77.98004942 78.24304201 77.9658432 74.73171997 C77.95005101 71.03425299 77.92897395 67.33699488 77.89477539 63.63964844 C77.86199933 60.07347058 77.84420266 56.50749432 77.83646202 52.94117737 C77.82828276 50.92942653 77.80489282 48.91775593 77.78120422 46.90612793 C77.77853596 32.29635386 77.77853596 32.29635386 82.46711731 27.0369873 C86.9665538 23.0197664 91.23855476 21.26905384 97.2109375 21.44921875 C98.16033203 21.45115234 99.10972656 21.45308594 100.08789062 21.45507812 C102.06491274 21.47457538 104.04185774 21.52136909 106.01757812 21.59570312 C108.96065935 21.57375472 111.31507593 21.44977262 114.12109375 20.546875 C116.18099115 18.42685001 117.48797784 16.38030211 118.86181641 13.76953125 C121.46962096 9.1666905 125.65855858 7.12637007 130.43359375 5.234375 C139.9540884 3.45936752 146.99029144 4.45159598 155.09765625 9.8671875 C161.27210966 14.67537888 164.02632389 20.21788208 165.05859375 27.921875 C165.47051342 35.55823195 163.83807681 41.82570135 159.05859375 47.859375 C153.20602919 53.88299573 147.03092206 56.79590621 138.62109375 57.171875 C131.35917028 56.85539541 125.59641585 54.78376544 120.2421875 49.796875 C117.58138831 46.82190915 115.92763756 44.15996262 114.12109375 40.546875 C108.18109375 40.216875 102.24109375 39.886875 96.12109375 39.546875 C96.12109375 59.016875 96.12109375 78.486875 96.12109375 98.546875 C101.07109375 98.546875 106.02109375 98.546875 111.12109375 98.546875 C121.6175052 101.41957708 129.13785463 105.80125323 134.8671875 115.21484375 C139.7454976 124.2875887 139.12109375 130.34670824 139.12109375 141.546875 C158.59109375 141.546875 178.06109375 141.546875 198.12109375 141.546875 C197.79109375 135.606875 197.46109375 129.666875 197.12109375 123.546875 C193.83855373 120.35383422 193.83855373 120.35383422 191.1875 119.3984375 C186.75444737 117.57158405 184.67801672 113.48788277 182.30859375 109.484375 C179.93165514 103.27410765 180.07621773 96.03463245 181.96484375 89.73046875 C185.07214498 82.85451502 189.63014916 77.7028268 196.47265625 74.41796875 C204.07049989 71.7285733 211.94153745 71.8965939 219.37109375 75.109375 C225.663595 78.68847736 230.5091606 84.50410892 232.6875 91.41796875 C234.32944856 99.47978828 233.36923936 107.56638506 228.83203125 114.5234375 C226.19916252 117.83212281 224.47746054 119.39816698 220.4609375 121.07421875 C218.55965705 122.02011473 218.55965705 122.02011473 217.12109375 123.546875 C216.17742494 127.12188327 216.32474056 130.62005609 216.43359375 134.296875 C216.56609231 141.6382767 216.40373938 147.34758087 212.12109375 153.546875 C208.05790723 157.61006152 203.76775041 159.33988786 198.04580688 159.78738403 C196.41365738 159.7807222 196.41365738 159.7807222 194.74853516 159.77392578 C193.50770172 159.77377472 192.26686829 159.77362366 190.98843384 159.77346802 C189.64983964 159.76325725 188.31124712 159.7528253 186.97265625 159.7421875 C185.59117844 159.73845313 184.20969797 159.73560816 182.82821655 159.73361206 C179.20815604 159.72600892 175.58825832 159.70638937 171.96826172 159.6842041 C168.26792644 159.66367379 164.56756385 159.65448514 160.8671875 159.64453125 C153.61834624 159.6242036 146.36995087 159.5850492 139.12109375 159.546875 C139.12109375 170.436875 139.12109375 181.326875 139.12109375 192.546875 C143.03339844 192.47726563 146.94570313 192.40765625 150.9765625 192.3359375 C154.76600221 192.28914423 158.55540973 192.25271265 162.3449707 192.21728516 C164.9785808 192.1871126 167.61209041 192.14616883 170.24536133 192.09423828 C174.03101382 192.02145099 177.81533796 191.98742152 181.6015625 191.9609375 C182.77881393 191.92996979 183.95606537 191.89900208 185.16899109 191.86709595 C193.13554848 191.8638161 193.13554848 191.8638161 195.99282837 193.84413147 C197.87008719 196.00915901 199.01866719 197.93765035 199.49609375 200.77734375 C198.94418376 203.65762402 198.45913818 206.07053967 196.74609375 208.484375 C193.50944982 210.60064218 190.66193223 210.66929979 186.9152832 210.66040039 C185.32397331 210.66028709 185.32397331 210.66028709 183.70051575 210.66017151 C182.5566893 210.65501022 181.41286285 210.64984894 180.234375 210.64453125 C179.06222946 210.6431163 177.89008392 210.64170135 176.68241882 210.64024353 C172.93278468 210.63463888 169.1832099 210.62208556 165.43359375 210.609375 C162.89388107 210.6043606 160.35416745 210.59979759 157.81445312 210.59570312 C151.58329197 210.58551816 145.35225944 210.56594351 139.12109375 210.546875 C139.12109375 221.436875 139.12109375 232.326875 139.12109375 243.546875 C146.45593775 243.56472754 153.78441853 243.56161126 161.11816406 243.50415039 C163.61292118 243.49100471 166.10777577 243.49028169 168.60253906 243.50219727 C172.18783103 243.51717164 175.77040015 243.48758552 179.35546875 243.44921875 C181.03065582 243.47060158 181.03065582 243.47060158 182.73968506 243.49241638 C188.20184775 243.60616815 188.20184775 243.60616815 192.67877197 240.9949646 C193.9390924 238.89404786 193.9390924 238.89404786 195.12109375 235.546875 C199.85800209 230.08815206 205.62959551 227.01966429 212.79296875 226.265625 C221.04281965 225.99214928 226.89223996 227.52935938 233.37109375 232.671875 C239.49495805 238.47025833 241.32989086 244.12247588 241.68359375 252.484375 C241.41272174 260.8543202 238.9590991 267.21474957 232.80859375 272.984375 C225.86433989 278.25603438 218.73717721 279.58032434 210.12109375 278.546875 C201.93063058 276.73214904 196.90412168 272.3280347 192.12109375 265.546875 C191.79109375 264.556875 191.46109375 263.566875 191.12109375 262.546875 C173.96109375 262.216875 156.80109375 261.886875 139.12109375 261.546875 C139.12109375 272.436875 139.12109375 283.326875 139.12109375 294.546875 C142.88902344 294.51207031 146.65695312 294.47726562 150.5390625 294.44140625 C154.1895268 294.41800808 157.83998273 294.39979291 161.49047852 294.38208008 C164.0269749 294.36699637 166.56344523 294.34652669 169.09985352 294.32055664 C172.74632197 294.28415619 176.39244548 294.26714418 180.0390625 294.25390625 C181.73931831 294.23068047 181.73931831 294.23068047 183.47392273 294.20698547 C184.53464493 294.20675888 185.59536713 294.20653229 186.68823242 294.20629883 C188.0838868 294.19630608 188.0838868 294.19630608 189.50773621 294.18611145 C193.32422852 294.71296294 196.11090502 296.26118025 198.49609375 299.296875 C199.43807177 302.68799587 198.96861574 305.15678703 198.12109375 308.546875 C196.05173712 311.19638092 194.89374069 312.40220677 191.55206299 313.02789307 C190.58387634 313.01901062 189.6156897 313.01012817 188.61816406 313.00097656 C187.51732483 313.00067444 186.4164856 313.00037231 185.2822876 313.00006104 C184.09987488 312.97941589 182.91746216 312.95877075 181.69921875 312.9375 C179.87653473 312.92901031 179.87653473 312.92901031 178.01702881 312.92034912 C174.13465032 312.89795234 170.25319347 312.84774687 166.37109375 312.796875 C163.73959666 312.7768144 161.10808511 312.75856287 158.4765625 312.7421875 C152.02409856 312.70147795 145.57362816 312.62318618 139.12109375 312.546875 C139.12109375 323.436875 139.12109375 334.326875 139.12109375 345.546875 C145.6953125 345.49466797 145.6953125 345.49466797 152.40234375 345.44140625 C155.91364283 345.42209122 159.42492674 345.40583067 162.93624878 345.39162445 C166.63371576 345.37583226 170.33097387 345.3547552 174.02832031 345.32055664 C177.59449817 345.28778058 181.16047443 345.26998391 184.72679138 345.26224327 C186.73854222 345.25406401 188.75021282 345.23067407 190.76184082 345.20698547 C205.37161489 345.20431721 205.37161489 345.20431721 210.63098145 349.89289856 C214.64820235 354.39233505 216.39891491 358.66433601 216.21875 364.63671875 C216.21681641 365.58611328 216.21488281 366.53550781 216.21289062 367.51367188 C216.19339337 369.49069399 216.14659966 371.46763899 216.07226562 373.44335938 C216.09421403 376.3864406 216.21819613 378.74085718 217.12109375 381.546875 C219.24111874 383.6067724 221.28766664 384.91375909 223.8984375 386.28759766 C228.50127825 388.89540221 230.54159868 393.08433983 232.43359375 397.859375 C234.20860123 407.37986965 233.21637277 414.41607269 227.80078125 422.5234375 C222.99258987 428.69789091 217.45008667 431.45210514 209.74609375 432.484375 C202.1097368 432.89629467 195.8422674 431.26385806 189.80859375 426.484375 C183.78497302 420.63181044 180.87206254 414.45670331 180.49609375 406.046875 C180.81257334 398.78495153 182.88420331 393.0221971 187.87109375 387.66796875 C190.8460596 385.00716956 193.50800613 383.35341881 197.12109375 381.546875 C197.45109375 375.606875 197.78109375 369.666875 198.12109375 363.546875 C178.65109375 363.546875 159.18109375 363.546875 139.12109375 363.546875 C139.12109375 368.496875 139.12109375 373.446875 139.12109375 378.546875 C136.24839167 389.04328645 131.86671552 396.56363588 122.453125 402.29296875 C113.38038005 407.17127885 107.32126051 406.546875 96.12109375 406.546875 C96.12109375 426.016875 96.12109375 445.486875 96.12109375 465.546875 C102.06109375 465.216875 108.00109375 464.886875 114.12109375 464.546875 C117.31413453 461.26433498 117.31413453 461.26433498 118.26953125 458.61328125 C120.0963847 454.18022862 124.18008598 452.10379797 128.18359375 449.734375 C134.3938611 447.35743639 141.6333363 447.50199898 147.9375 449.390625 C154.73793832 452.46380018 159.95153599 457.04504264 163.21484375 463.81640625 C166.22909891 472.00792376 165.62754956 479.60139535 162.12109375 487.546875 C157.57543995 494.55776432 151.88835762 497.95778704 144.12109375 500.546875 C135.66605189 501.34048904 128.06595269 500.17400744 121.30859375 494.796875 C118.72639999 492.5781011 117.95416978 491.14685515 116.59375 487.88671875 C115.64785402 485.9854383 115.64785402 485.9854383 114.12109375 484.546875 C110.54608548 483.60320619 107.04791266 483.75052181 103.37109375 483.859375 C96.02969205 483.99187356 90.32038788 483.82952063 84.12109375 479.546875 C80.05790723 475.48368848 78.32808089 471.19353166 77.88058472 465.47158813 C77.88502594 464.38348846 77.88946716 463.29538879 77.89404297 462.17431641 C77.89419403 460.93348297 77.89434509 459.69264954 77.89450073 458.41421509 C77.9047115 457.07562089 77.91514345 455.73702837 77.92578125 454.3984375 C77.92951562 453.01695969 77.93236059 451.63547922 77.93435669 450.2539978 C77.94195983 446.63393729 77.96157938 443.01403957 77.98376465 439.39404297 C78.00429496 435.69370769 78.01348361 431.9933451 78.0234375 428.29296875 C78.04376515 421.04412749 78.08291955 413.79573212 78.12109375 406.546875 C67.23109375 406.546875 56.34109375 406.546875 45.12109375 406.546875 C45.19070313 410.45917969 45.2603125 414.37148438 45.33203125 418.40234375 C45.37882452 422.19178346 45.4152561 425.98119098 45.45068359 429.77075195 C45.48085615 432.40436205 45.52179992 435.03787166 45.57373047 437.67114258 C45.64651776 441.45679507 45.68054723 445.24111921 45.70703125 449.02734375 C45.73799896 450.20459518 45.76896667 451.38184662 45.8008728 452.59477234 C45.80415265 460.56132973 45.80415265 460.56132973 43.82383728 463.41860962 C41.65880974 465.29586844 39.7303184 466.44444844 36.890625 466.921875 C34.01034473 466.36996501 31.59742908 465.88491943 29.18359375 464.171875 C27.06732657 460.93523107 26.99866896 458.08771348 27.00756836 454.34106445 C27.00764389 453.28019119 27.00771942 452.21931793 27.00779724 451.126297 C27.01295853 449.98247055 27.01811981 448.8386441 27.0234375 447.66015625 C27.02555992 445.90193794 27.02555992 445.90193794 27.02772522 444.10820007 C27.03332987 440.35856593 27.04588319 436.60899115 27.05859375 432.859375 C27.06360815 430.31966232 27.06817116 427.7799487 27.07226562 425.24023438 C27.08245059 419.00907322 27.10202524 412.77804069 27.12109375 406.546875 C16.23109375 406.546875 5.34109375 406.546875 -5.87890625 406.546875 C-5.89675879 413.881719 -5.89364251 421.21019978 -5.83618164 428.54394531 C-5.82303596 431.03870243 -5.82231294 433.53355702 -5.83422852 436.02832031 C-5.84920289 439.61361228 -5.81961677 443.1961814 -5.78125 446.78125 C-5.80263283 448.45643707 -5.80263283 448.45643707 -5.82444763 450.16546631 C-5.9381994 455.627629 -5.9381994 455.627629 -3.32699585 460.10455322 C-1.22607911 461.36487365 -1.22607911 461.36487365 2.12109375 462.546875 C7.57981669 467.28378334 10.64830446 473.05537676 11.40234375 480.21875 C11.67581947 488.4686009 10.13860937 494.31802121 4.99609375 500.796875 C-0.80228958 506.9207393 -6.45450713 508.75567211 -14.81640625 509.109375 C-23.18635145 508.83850299 -29.54678082 506.38488035 -35.31640625 500.234375 C-40.58806563 493.29012114 -41.91235559 486.16295846 -40.87890625 477.546875 C-39.06418029 469.35641183 -34.66006595 464.32990293 -27.87890625 459.546875 C-26.88890625 459.216875 -25.89890625 458.886875 -24.87890625 458.546875 C-24.54890625 441.386875 -24.21890625 424.226875 -23.87890625 406.546875 C-34.76890625 406.546875 -45.65890625 406.546875 -56.87890625 406.546875 C-56.84410156 410.31480469 -56.80929688 414.08273437 -56.7734375 417.96484375 C-56.75003933 421.61530805 -56.73182416 425.26576398 -56.71411133 428.91625977 C-56.69902762 431.45275615 -56.67855794 433.98922648 -56.65258789 436.52563477 C-56.61618744 440.17210322 -56.59917543 443.81822673 -56.5859375 447.46484375 C-56.57045364 448.59834763 -56.55496979 449.7318515 -56.53901672 450.89970398 C-56.53867683 452.49078728 -56.53867683 452.49078728 -56.53833008 454.11401367 C-56.52833733 455.50966805 -56.52833733 455.50966805 -56.5181427 456.93351746 C-57.04499419 460.75000977 -58.5932115 463.53668627 -61.62890625 465.921875 C-65.02002712 466.86385302 -67.48881828 466.39439699 -70.87890625 465.546875 C-73.52841217 463.47751837 -74.73423802 462.31952194 -75.35992432 458.97784424 C-75.35104187 458.00965759 -75.34215942 457.04147095 -75.33300781 456.04394531 C-75.33270569 454.94310608 -75.33240356 453.84226685 -75.33209229 452.70806885 C-75.31144714 451.52565613 -75.290802 450.34324341 -75.26953125 449.125 C-75.26387146 447.90987732 -75.25821167 446.69475464 -75.25238037 445.44281006 C-75.22998359 441.56043157 -75.17977812 437.67897472 -75.12890625 433.796875 C-75.10884565 431.16537791 -75.09059412 428.53386636 -75.07421875 425.90234375 C-75.0335092 419.44987981 -74.95521743 412.99940941 -74.87890625 406.546875 C-85.76890625 406.546875 -96.65890625 406.546875 -107.87890625 406.546875 C-107.84410156 410.9296875 -107.80929688 415.3125 -107.7734375 419.828125 C-107.75412247 423.33942408 -107.73786192 426.85070799 -107.7236557 430.36203003 C-107.70786351 434.05949701 -107.68678645 437.75675512 -107.65258789 441.45410156 C-107.61981183 445.02027942 -107.60201516 448.58625568 -107.59427452 452.15257263 C-107.58609526 454.16432347 -107.56270532 456.17599407 -107.53901672 458.18762207 C-107.53634846 472.79739614 -107.53634846 472.79739614 -112.22492981 478.0567627 C-116.7243663 482.0739836 -120.99636726 483.82469616 -126.96875 483.64453125 C-127.91814453 483.64259766 -128.86753906 483.64066406 -129.84570312 483.63867188 C-131.82272524 483.61917462 -133.79967024 483.57238091 -135.77539062 483.49804688 C-138.71847185 483.51999528 -141.07288843 483.64397738 -143.87890625 484.546875 C-145.93880365 486.66689999 -147.24579034 488.71344789 -148.61962891 491.32421875 C-151.22743346 495.9270595 -155.41637108 497.96737993 -160.19140625 499.859375 C-169.7119009 501.63438248 -176.74810394 500.64215402 -184.85546875 495.2265625 C-190.09970601 491.1427522 -192.77888736 486.30527286 -194.62890625 479.984375 C-195.47760443 471.70956779 -194.28630372 464.34018284 -189.37109375 457.42578125 C-183.50435404 451.08151622 -177.02211402 448.36753234 -168.44140625 447.984375 C-161.12869049 448.24066177 -155.39119456 450.2755545 -150 455.296875 C-147.33920081 458.27184085 -145.68545006 460.93378738 -143.87890625 464.546875 C-137.93890625 464.876875 -131.99890625 465.206875 -125.87890625 465.546875 C-125.87890625 446.076875 -125.87890625 426.606875 -125.87890625 406.546875 C-130.82890625 406.546875 -135.77890625 406.546875 -140.87890625 406.546875 C-151.3753177 403.67417292 -158.89566713 399.29249677 -164.625 389.87890625 C-169.5033101 380.8061613 -168.87890625 374.74704176 -168.87890625 363.546875 C-188.34890625 363.546875 -207.81890625 363.546875 -227.87890625 363.546875 C-227.38390625 372.456875 -227.38390625 372.456875 -226.87890625 381.546875 C-223.59636623 384.73991578 -223.59636623 384.73991578 -220.9453125 385.6953125 C-216.51225987 387.52216595 -214.43582922 391.60586723 -212.06640625 395.609375 C-209.68946764 401.81964235 -209.83403023 409.05911755 -211.72265625 415.36328125 C-214.82995748 422.23923498 -219.38796166 427.3909232 -226.23046875 430.67578125 C-233.82831239 433.3651767 -241.69934995 433.1971561 -249.12890625 429.984375 C-255.37523046 426.43153762 -260.28431204 420.6179253 -262.44140625 413.7421875 C-264.25058827 404.66397056 -262.73006511 397.49625145 -257.74609375 389.796875 C-255.46725291 386.77854276 -253.77232768 385.50288837 -250.25390625 384.05078125 C-248.33628936 383.09062172 -248.33628936 383.09062172 -246.87890625 381.546875 C-245.93277011 377.97262593 -246.08255711 374.47355717 -246.19140625 370.796875 C-246.32390481 363.4554733 -246.16155188 357.74616913 -241.87890625 351.546875 C-237.81571973 347.48368848 -233.52556291 345.75386214 -227.80361938 345.30636597 C-226.71551971 345.31080719 -225.62742004 345.31524841 -224.50634766 345.31982422 C-223.26551422 345.31997528 -222.02468079 345.32012634 -220.74624634 345.32028198 C-219.40765214 345.33049275 -218.06905962 345.3409247 -216.73046875 345.3515625 C-215.34899094 345.35529687 -213.96751047 345.35814184 -212.58602905 345.36013794 C-208.96596854 345.36774108 -205.34607082 345.38736063 -201.72607422 345.4095459 C-198.02573894 345.43007621 -194.32537635 345.43926486 -190.625 345.44921875 C-183.37615874 345.4695464 -176.12776337 345.5087008 -168.87890625 345.546875 C-168.87890625 334.656875 -168.87890625 323.766875 -168.87890625 312.546875 C-172.79121094 312.61648438 -176.70351562 312.68609375 -180.734375 312.7578125 C-184.52381471 312.80460577 -188.31322223 312.84103735 -192.1027832 312.87646484 C-194.7363933 312.9066374 -197.36990291 312.94758117 -200.00317383 312.99951172 C-203.78882632 313.07229901 -207.57315046 313.10632848 -211.359375 313.1328125 C-212.53662643 313.16378021 -213.71387787 313.19474792 -214.92680359 313.22665405 C-222.89336098 313.2299339 -222.89336098 313.2299339 -225.75064087 311.24961853 C-227.62789969 309.08459099 -228.77647969 307.15609965 -229.25390625 304.31640625 C-228.70199626 301.43612598 -228.21695068 299.02321033 -226.50390625 296.609375 C-223.26726232 294.49310782 -220.41974473 294.42445021 -216.6730957 294.43334961 C-215.08178581 294.43346291 -215.08178581 294.43346291 -213.45832825 294.43357849 C-212.3145018 294.43873978 -211.17067535 294.44390106 -209.9921875 294.44921875 C-208.23396919 294.45134117 -208.23396919 294.45134117 -206.44023132 294.45350647 C-202.69059718 294.45911112 -198.9410224 294.47166444 -195.19140625 294.484375 C-192.65169357 294.4893894 -190.11197995 294.49395241 -187.57226562 294.49804688 C-181.34110447 294.50823184 -175.11007194 294.52780649 -168.87890625 294.546875 C-168.87890625 283.656875 -168.87890625 272.766875 -168.87890625 261.546875 C-176.21375025 261.52902246 -183.54223103 261.53213874 -190.87597656 261.58959961 C-193.37073368 261.60274529 -195.86558827 261.60346831 -198.36035156 261.59155273 C-201.94564353 261.57657836 -205.52821265 261.60616448 -209.11328125 261.64453125 C-210.78846832 261.62314842 -210.78846832 261.62314842 -212.49749756 261.60133362 C-217.95966025 261.48758185 -217.95966025 261.48758185 -222.43658447 264.0987854 C-223.6969049 266.19970214 -223.6969049 266.19970214 -224.87890625 269.546875 C-229.61581459 275.00559794 -235.38740801 278.07408571 -242.55078125 278.828125 C-250.80063215 279.10160072 -256.65005246 277.56439062 -263.12890625 272.421875 C-269.25277055 266.62349167 -271.08770336 260.97127412 -271.44140625 252.609375 C-271.17053424 244.2394298 -268.7169116 237.87900043 -262.56640625 232.109375 C-255.62215239 226.83771562 -248.49498971 225.51342566 -239.87890625 226.546875 C-231.68844308 228.36160096 -226.66193418 232.7657153 -221.87890625 239.546875 C-221.54890625 240.536875 -221.21890625 241.526875 -220.87890625 242.546875 C-203.71890625 242.876875 -186.55890625 243.206875 -168.87890625 243.546875 C-168.87890625 232.656875 -168.87890625 221.766875 -168.87890625 210.546875 C-172.64683594 210.58167969 -176.41476563 210.61648437 -180.296875 210.65234375 C-183.9473393 210.67574192 -187.59779523 210.69395709 -191.24829102 210.71166992 C-193.7847874 210.72675363 -196.32125773 210.74722331 -198.85766602 210.77319336 C-202.50413447 210.80959381 -206.15025798 210.82660582 -209.796875 210.83984375 C-211.49713081 210.86306953 -211.49713081 210.86306953 -213.23173523 210.88676453 C-214.29245743 210.88699112 -215.35317963 210.88721771 -216.44604492 210.88745117 C-217.8416993 210.89744392 -217.8416993 210.89744392 -219.26554871 210.90763855 C-223.08204102 210.38078706 -225.86871752 208.83256975 -228.25390625 205.796875 C-229.19588427 202.40575413 -228.72642824 199.93696297 -227.87890625 196.546875 C-225.80954962 193.89736908 -224.65155319 192.69154323 -221.30987549 192.06585693 C-219.85759552 192.0791806 -219.85759552 192.0791806 -218.37597656 192.09277344 C-216.72471771 192.09322662 -216.72471771 192.09322662 -215.0401001 192.09368896 C-213.85768738 192.11433411 -212.67527466 192.13497925 -211.45703125 192.15625 C-210.24190857 192.16190979 -209.02678589 192.16756958 -207.77484131 192.17340088 C-203.89246282 192.19579766 -200.01100597 192.24600313 -196.12890625 192.296875 C-193.49740916 192.3169356 -190.86589761 192.33518713 -188.234375 192.3515625 C-181.78223744 192.39567347 -175.33063769 192.46261981 -168.87890625 192.546875 C-168.7396875 191.75796875 -168.60046875 190.9690625 -168.45703125 190.15625 C-167.8053784 187.21500603 -167.30688548 186.28114588 -164.87890625 184.546875 C-161.42656767 183.24058473 -160.15264184 183.43416035 -156.69140625 184.859375 C-153.87890625 186.546875 -153.87890625 186.546875 -151.87890625 188.546875 C-151.68245283 191.00005936 -151.61128555 193.34056667 -151.62734985 195.79483032 C-151.62437971 196.55043538 -151.62140958 197.30604045 -151.61834943 198.08454263 C-151.61067803 200.63016812 -151.61721631 203.175565 -151.62353516 205.72119141 C-151.62078664 207.54099688 -151.6171076 209.36080115 -151.61256409 211.18060303 C-151.60443638 215.10717004 -151.60228761 219.03368005 -151.60451126 222.96025467 C-151.60733867 229.1711723 -151.59301262 235.38197563 -151.57553101 241.59286499 C-151.52845294 259.25704214 -151.50456982 276.92121216 -151.49804688 294.58544922 C-151.49429438 304.33548677 -151.47624652 314.08539564 -151.44295251 323.83537805 C-151.42274212 330.00674362 -151.42036706 336.17777719 -151.43123269 342.34916234 C-151.43384336 346.19549962 -151.41981766 350.04164449 -151.40115166 353.88793182 C-151.39583727 355.66805443 -151.39731357 357.44821265 -151.40618706 359.22832108 C-151.41735075 361.6650113 -151.40382854 364.10040603 -151.38442993 366.53701782 C-151.39355459 367.23606723 -151.40267925 367.93511665 -151.41208041 368.65534937 C-151.33752851 373.49161833 -150.06779729 376.76894745 -147.73613393 380.88315904 C-146.87890625 382.546875 -146.87890625 382.546875 -146.87890625 384.546875 C-145.55551993 385.23307531 -144.21940677 385.89473961 -142.87890625 386.546875 C-141.87455394 387.06840621 -141.87455394 387.06840621 -140.84991169 387.6004734 C-136.5675537 388.96460098 -132.49905557 388.82913089 -128.03031921 388.81430054 C-126.53167232 388.82109721 -126.53167232 388.82109721 -125.00274974 388.82803118 C-121.65111898 388.84070294 -118.29965013 388.839053 -114.94799805 388.83740234 C-112.54647614 388.84338586 -110.14495616 388.85019099 -107.74343872 388.85775757 C-101.89467823 388.87360538 -96.04595578 388.87986675 -90.19717821 388.88098232 C-85.44192516 388.88193322 -80.68668539 388.88604558 -75.93143654 388.89238358 C-62.44380138 388.90999406 -48.95619804 388.91922279 -35.4685513 388.91772263 C-34.37822363 388.91760276 -34.37822363 388.91760276 -33.26586914 388.91748047 C-32.53809451 388.91739871 -31.81031988 388.91731695 -31.06049148 388.91723271 C-19.26798145 388.91641994 -7.47559919 388.93555564 4.31687389 388.9637572 C16.43081285 388.99249849 28.54468953 389.0062968 40.65866345 389.00456965 C47.45752336 389.00390616 54.25624934 389.00938037 61.05507851 389.03092575 C67.44989845 389.05106123 73.8445087 389.05045108 80.23934555 389.03589249 C82.58548966 389.03379989 84.93165134 389.03853201 87.27776527 389.0506134 C90.48269503 389.06604741 93.68664711 389.05676903 96.89155579 389.04135132 C98.28140929 389.05678201 98.28140929 389.05678201 99.69934064 389.07252443 C105.10854914 389.0150928 108.84467567 388.14855939 113.53541344 385.40449107 C115.12109375 384.546875 115.12109375 384.546875 117.12109375 384.546875 C117.40984375 383.825 117.69859375 383.103125 117.99609375 382.359375 C119.12109375 379.546875 119.12109375 379.546875 120.17511272 377.48747158 C121.54928961 373.21582157 121.39982872 369.14575828 121.38179016 364.68482971 C121.38561571 363.68432065 121.38944126 362.6838116 121.39338273 361.65298408 C121.40371078 358.29667896 121.39972091 354.94054496 121.39575195 351.58422852 C121.40009851 349.17946209 121.40528147 346.77469705 121.41123962 344.36993408 C121.42325362 338.51381894 121.42578034 332.65774632 121.42343936 326.80162353 C121.42165609 322.04158657 121.42340603 317.28156354 121.4276638 312.52152824 C121.42855659 311.50519767 121.42855659 311.50519767 121.42946741 310.46833516 C121.43067916 309.09187222 121.43189329 307.71540928 121.43310978 306.33894634 C121.44398522 293.43162507 121.44182277 280.52432993 121.43572494 267.61700719 C121.43055533 255.81023495 121.44181235 244.0035452 121.46082316 232.19678927 C121.480197 220.07156113 121.48845838 207.94637203 121.4846999 195.82112831 C121.48278722 189.01453463 121.48528194 182.20801118 121.49941444 175.40143013 C121.51256778 169.00171511 121.51007438 162.60212402 121.49700356 156.20240784 C121.49463234 153.85220217 121.49739188 151.50198496 121.50562668 149.15179253 C121.5160494 145.94630296 121.50802908 142.74137311 121.49531555 139.53590393 C121.50268984 138.60350925 121.51006412 137.67111456 121.51766187 136.71046549 C121.47421344 131.51166841 120.86291849 128.11302085 118.12109375 123.546875 C117.79109375 122.556875 117.46109375 121.566875 117.12109375 120.546875 C114.82575117 119.41141938 114.82575117 119.41141938 112.12109375 118.546875 C111.44277968 118.20291593 110.76446562 117.85895685 110.06559658 117.50457478 C105.79256178 116.11476987 101.72551674 116.26811763 97.25904846 116.28617859 C95.75828488 116.28044027 95.75828488 116.28044027 94.22720283 116.27458602 C90.87089771 116.26425797 87.51476371 116.26824784 84.15844727 116.2722168 C81.75368084 116.26787024 79.3489158 116.26268728 76.94415283 116.25672913 C71.08803769 116.24471513 65.23196507 116.24218841 59.37584228 116.24452939 C54.61580532 116.24631266 49.85578229 116.24456272 45.09574699 116.24030495 C44.41819328 116.23970976 43.74063956 116.23911457 43.04255391 116.23850134 C41.66609097 116.23728959 40.28962803 116.23607546 38.91316509 116.23485897 C26.00584382 116.22398353 13.09854868 116.22614598 0.19122594 116.23224381 C-11.6155463 116.23741342 -23.42223605 116.2261564 -35.22899198 116.20714559 C-47.35422012 116.18777175 -59.47940922 116.17951037 -71.60465294 116.18326885 C-78.41124662 116.18518153 -85.21777007 116.18268681 -92.02435112 116.16855431 C-98.42406614 116.15540097 -104.82365723 116.15789437 -111.22337341 116.17096519 C-113.57357908 116.17333641 -115.92379629 116.17057687 -118.27398872 116.16234207 C-121.47947829 116.15191935 -124.68440814 116.15993967 -127.88987732 116.1726532 C-128.822272 116.16527891 -129.75466669 116.15790463 -130.71531576 116.15030688 C-137.34486355 116.20571267 -141.50227923 117.49433349 -146.62890625 121.921875 C-150.71341102 126.68713057 -151.1612575 131.0026331 -151.15234375 137.11328125 C-151.17262144 138.58269006 -151.19347199 140.05209107 -151.21484375 141.52148438 C-151.23747997 143.82127532 -151.2539351 146.12075685 -151.25976562 148.4206543 C-151.26928844 150.65208736 -151.30304199 152.88215463 -151.33984375 155.11328125 C-151.33479828 155.79878555 -151.32975281 156.48428986 -151.32455444 157.19056702 C-151.39410115 160.56870446 -151.65836141 162.26931799 -153.78759766 164.94897461 C-157.27644451 167.6146882 -159.47859712 168.06455843 -163.87890625 167.546875 C-166.75390625 165.234375 -166.75390625 165.234375 -168.87890625 162.546875 C-168.87890625 161.556875 -168.87890625 160.566875 -168.87890625 159.546875 C-170.01737 159.55686775 -170.01737 159.55686775 -171.17883301 159.56706238 C-178.3577999 159.62736135 -185.53664269 159.67294429 -192.71579742 159.70231152 C-196.4060198 159.71791746 -200.0960316 159.73906182 -203.78613281 159.77319336 C-207.35231067 159.80596942 -210.91828693 159.82376609 -214.48460388 159.83150673 C-216.49635472 159.83968599 -218.50802532 159.86307593 -220.51965332 159.88676453 C-235.12942739 159.88943279 -235.12942739 159.88943279 -240.38879395 155.20085144 C-244.40601485 150.70141495 -246.15672741 146.42941399 -245.9765625 140.45703125 C-245.97462891 139.50763672 -245.97269531 138.55824219 -245.97070312 137.58007812 C-245.95120587 135.60305601 -245.90441216 133.62611101 -245.83007812 131.65039062 C-245.85202636 128.70733198 -245.97593331 126.35284882 -246.87890625 123.546875 C-248.99927057 121.48902173 -251.04552309 120.18368344 -253.65625 118.81225586 C-258.03914116 116.31703125 -260.07916836 112.2225163 -262.19140625 107.796875 C-263.98940502 99.29724445 -263.43136457 92.02591366 -258.87890625 84.546875 C-254.65165847 78.23101663 -249.73253085 74.60201078 -242.2734375 72.98046875 C-234.70882534 71.96687474 -228.16524548 72.83219349 -221.65234375 76.95703125 C-215.44050025 81.87764885 -211.58373527 87.84416331 -210.40234375 95.7265625 C-210.06139404 103.35306913 -211.37630089 109.3220231 -215.87890625 115.546875 C-219.22749936 119.14212787 -222.47715612 121.34599993 -226.87890625 123.546875 C-227.20890625 129.486875 -227.53890625 135.426875 -227.87890625 141.546875 C-208.40890625 141.546875 -188.93890625 141.546875 -168.87890625 141.546875 C-168.87890625 136.596875 -168.87890625 131.646875 -168.87890625 126.546875 C-166.00620417 116.05046355 -161.62452802 108.53011412 -152.2109375 102.80078125 C-143.13819255 97.92247115 -137.07907301 98.546875 -125.87890625 98.546875 C-125.87890625 79.076875 -125.87890625 59.606875 -125.87890625 39.546875 C-131.81890625 39.876875 -137.75890625 40.206875 -143.87890625 40.546875 C-147.07194703 43.82941502 -147.07194703 43.82941502 -148.02734375 46.48046875 C-149.8541972 50.91352138 -153.93789848 52.98995203 -157.94140625 55.359375 C-164.1516736 57.73631361 -171.3911488 57.59175102 -177.6953125 55.703125 C-184.49575082 52.62994982 -189.70934849 48.04870736 -192.97265625 41.27734375 C-195.98691141 33.08582624 -195.38536206 25.49235465 -191.87890625 17.546875 C-187.33325245 10.53598568 -181.64617012 7.13596296 -173.87890625 4.546875 C-164.13817339 3.64719808 -157.5637251 6.0296912 -149.73828125 11.65625 C-147.87890625 13.546875 -147.87890625 13.546875 -146.31640625 17.20703125 C-145.38632829 19.10657176 -145.38632829 19.10657176 -143.87890625 20.546875 C-140.30432207 21.49135371 -136.80544294 21.34321984 -133.12890625 21.234375 C-125.78750455 21.10187644 -120.07820038 21.26422937 -113.87890625 25.546875 C-109.81571973 29.61006152 -108.08589339 33.90021834 -107.63839722 39.62216187 C-107.64283844 40.71026154 -107.64727966 41.79836121 -107.65185547 42.91943359 C-107.65208206 44.78068375 -107.65208206 44.78068375 -107.65231323 46.67953491 C-107.662524 48.01812911 -107.67295595 49.35672163 -107.68359375 50.6953125 C-107.68732812 52.07679031 -107.69017309 53.45827078 -107.69216919 54.8397522 C-107.69977233 58.45981271 -107.71939188 62.07971043 -107.74157715 65.69970703 C-107.76210746 69.40004231 -107.77129611 73.1004049 -107.78125 76.80078125 C-107.80157765 84.04962251 -107.84073205 91.29801788 -107.87890625 98.546875 C-96.98890625 98.546875 -86.09890625 98.546875 -74.87890625 98.546875 C-74.94851562 94.63457031 -75.018125 90.72226563 -75.08984375 86.69140625 C-75.13663702 82.90196654 -75.1730686 79.11255902 -75.20849609 75.32299805 C-75.23866865 72.68938795 -75.27961242 70.05587834 -75.33154297 67.42260742 C-75.40433026 63.63695493 -75.43835973 59.85263079 -75.46484375 56.06640625 C-75.49581146 54.88915482 -75.52677917 53.71190338 -75.5586853 52.49897766 C-75.56196515 44.53242027 -75.56196515 44.53242027 -73.58164978 41.67514038 C-71.41662224 39.79788156 -69.4881309 38.64930156 -66.6484375 38.171875 C-63.76815723 38.72378499 -61.35524158 39.20883057 -58.94140625 40.921875 C-56.82513907 44.15851893 -56.75648146 47.00603652 -56.76538086 50.75268555 C-56.76545639 51.81355881 -56.76553192 52.87443207 -56.76560974 53.967453 C-56.77077103 55.11127945 -56.77593231 56.2551059 -56.78125 57.43359375 C-56.78337242 59.19181206 -56.78337242 59.19181206 -56.78553772 60.98554993 C-56.79114237 64.73518407 -56.80369569 68.48475885 -56.81640625 72.234375 C-56.82142065 74.77408768 -56.82598366 77.3138013 -56.83007812 79.85351562 C-56.84026309 86.08467678 -56.85983774 92.31570931 -56.87890625 98.546875 C-45.98890625 98.546875 -35.09890625 98.546875 -23.87890625 98.546875 C-23.86105371 91.212031 -23.86416999 83.88355022 -23.92163086 76.54980469 C-23.93477654 74.05504757 -23.93549956 71.56019298 -23.92358398 69.06542969 C-23.90860961 65.48013772 -23.93819573 61.8975686 -23.9765625 58.3125 C-23.95517967 56.63731293 -23.95517967 56.63731293 -23.93336487 54.92828369 C-23.8196131 49.466121 -23.8196131 49.466121 -26.43081665 44.98919678 C-28.53173339 43.72887635 -28.53173339 43.72887635 -31.87890625 42.546875 C-37.33762919 37.80996666 -40.40611696 32.03837324 -41.16015625 24.875 C-41.43363197 16.6251491 -39.89642187 10.77572879 -34.75390625 4.296875 C-25.64422125 -5.32416446 -11.40830345 -6.66889331 0 0 Z " fill="#252626" transform="translate(270.87890625,3.453125)"/>
<path d="M0 0 C5.62877677 4.00509117 6.82464677 8.71882944 8.125 15.265625 C8.29044312 16.05694321 8.45588623 16.84826141 8.62634277 17.66355896 C8.98585602 19.3867392 9.34128732 21.11077498 9.69311523 22.83554077 C10.66056887 27.57297801 11.66077318 32.30354328 12.65625 37.03515625 C12.86527954 38.03259354 13.07430908 39.03003082 13.28967285 40.05769348 C15.67240021 51.39512809 18.20532872 62.69801363 20.75 74 C21.21267458 76.0629006 21.67532112 78.12580749 22.13793945 80.1887207 C24.35454274 90.05039837 26.61240765 99.90046113 28.94921875 109.734375 C29.37380074 111.53163261 29.7982823 113.32891396 30.22265625 115.1262207 C31.00554798 118.44047014 31.80287479 121.75075303 32.609375 125.05932617 C37.18119689 144.1453371 37.18119689 144.1453371 33.6875 149.875 C30.36996196 151.83149679 28.1117143 152.38024937 24.25 152.3125 C20.15652316 148.97502564 18.52242917 146.2800377 17.3125 141.1875 C17.08771973 140.26457153 17.08771973 140.26457153 16.85839844 139.32299805 C16.30032896 136.990829 15.77580943 134.65215818 15.25 132.3125 C14.72267985 130.02994246 14.19533412 127.74739084 13.66796875 125.46484375 C13.11005999 123.01866609 12.55408211 120.57204727 12 118.125 C11.72937744 116.93052246 11.45875488 115.73604492 11.17993164 114.50537109 C10.8046936 112.81081787 10.8046936 112.81081787 10.421875 111.08203125 C10.1959668 110.06729736 9.97005859 109.05256348 9.73730469 108.00708008 C9.25 105.3125 9.25 105.3125 9.25 101.3125 C-1.31 101.3125 -11.87 101.3125 -22.75 101.3125 C-23.28625 104.096875 -23.8225 106.88125 -24.375 109.75 C-26.03751199 118.11216603 -27.83588073 126.44189488 -29.75 134.75 C-29.9867041 135.82113037 -30.2234082 136.89226074 -30.46728516 137.99584961 C-32.7414881 147.666994 -32.7414881 147.666994 -36.75 151.3125 C-40.86453459 152.58426524 -42.77851705 152.81936067 -46.625 150.8125 C-49.38205353 147.56890761 -49.43830763 145.53480972 -49.75 141.3125 C-49.25610352 137.69262695 -49.25610352 137.69262695 -48.37890625 133.80078125 C-48.22184204 133.08795486 -48.06477783 132.37512848 -47.9029541 131.64070129 C-47.38421385 129.29942106 -46.84846919 126.96239075 -46.3125 124.625 C-45.94151817 122.9668818 -45.57166443 121.30851084 -45.20288086 119.64990234 C-44.43842262 116.22006726 -43.66725173 112.79184589 -42.890625 109.36474609 C-41.82567504 104.65983395 -40.78370813 99.95014277 -39.75 95.23828125 C-35.92024214 77.8105475 -31.96387652 60.41332636 -27.90356445 43.0378418 C-26.26852634 36.02429704 -24.65994084 29.01548282 -23.24609375 21.953125 C-23.02977295 20.88489502 -22.81345215 19.81666504 -22.59057617 18.71606445 C-22.21394639 16.82450796 -21.85187176 14.92995442 -21.5090332 13.03198242 C-20.2611927 6.77672655 -18.15615877 2.81034976 -12.875 -1.0625 C-8.21730178 -2.43241124 -4.28521138 -2.23773195 0 0 Z " fill="#282929" transform="translate(211.75,180.6875)"/>
<path d="M0 0 C1.22404541 -0.00004028 2.44809082 -0.00008057 3.70922852 -0.00012207 C6.2948114 0.00523469 8.88039378 0.02282367 11.46582031 0.05175781 C15.42303235 0.09359703 19.37854167 0.09282677 23.3359375 0.0859375 C25.84897016 0.0964305 28.36199405 0.10936918 30.875 0.125 C32.05843994 0.12520142 33.24187988 0.12540283 34.46118164 0.12561035 C36.11815063 0.14947815 36.11815063 0.14947815 37.80859375 0.17382812 C38.77724365 0.18224731 39.74589355 0.1906665 40.74389648 0.19934082 C43.95830815 0.670009 45.82533974 1.68477733 48.4375 3.59375 C50.4375 6.59375 50.4375 6.59375 50.3125 10.03125 C49.4375 13.59375 49.4375 13.59375 45.4375 17.59375 C38.5075 17.59375 31.5775 17.59375 24.4375 17.59375 C24.4375 57.19375 24.4375 96.79375 24.4375 137.59375 C31.3675 137.59375 38.2975 137.59375 45.4375 137.59375 C50.4375 142.59375 50.4375 142.59375 51 145.59375 C50.30956143 149.27608904 49.06936072 150.96188928 46.4375 153.59375 C43.38291974 154.61194342 41.23616024 154.74432295 38.03564453 154.78662109 C36.93084747 154.80268402 35.82605042 154.81874695 34.68777466 154.83529663 C29.64520909 154.87975094 24.60277415 154.92079311 19.56005859 154.94384766 C16.89851144 154.96042747 14.23700917 154.98774356 11.57568359 155.02587891 C7.7403247 155.08055428 3.90600825 155.10250676 0.0703125 155.1171875 C-1.11940155 155.13985687 -2.3091156 155.16252625 -3.53488159 155.18588257 C-12.72177533 155.16231768 -12.72177533 155.16231768 -15.81274414 152.19213867 C-18.52797599 148.16001748 -18.24600737 146.37830156 -17.5625 141.59375 C-15.5825 139.61375 -15.5825 139.61375 -13.5625 137.59375 C-6.6325 137.59375 0.2975 137.59375 7.4375 137.59375 C7.4375 97.99375 7.4375 58.39375 7.4375 17.59375 C0.5075 17.59375 -6.4225 17.59375 -13.5625 17.59375 C-17.59631117 13.55993883 -18.01129278 13.02064608 -18.19140625 7.69140625 C-15.539138 -1.15497914 -7.70279532 -0.10671379 0 0 Z " fill="#282828" transform="translate(282.5625,178.40625)"/>
<path d="M0 0 C0.66 0.33 1.32 0.66 2 1 C2.69848633 3.45825195 2.69848633 3.45825195 3.33203125 6.73828125 C3.57099121 7.94234619 3.80995117 9.14641113 4.05615234 10.38696289 C4.30574707 11.68239014 4.5553418 12.97781738 4.8125 14.3125 C5.33630865 16.9647873 5.86779256 19.61548342 6.40234375 22.265625 C6.5352179 22.92611343 6.66809204 23.58660187 6.80499268 24.2671051 C8.15604727 30.90588836 9.78203073 37.46212485 11.52661133 44.00708008 C12.44293591 47.49320455 13 50.36662631 13 54 C5.08 54 -2.84 54 -11 54 C-10.3911316 49.12905279 -9.80600564 44.70002988 -8.73046875 39.98046875 C-8.48312988 38.88387939 -8.23579102 37.78729004 -7.98095703 36.6574707 C-7.71911621 35.51238037 -7.45727539 34.36729004 -7.1875 33.1875 C-6.64628214 30.7892549 -6.10592324 28.3908158 -5.56640625 25.9921875 C-5.30102051 24.81366211 -5.03563477 23.63513672 -4.76220703 22.42089844 C-3.10054425 14.9631089 -1.54921903 7.48181662 0 0 Z " fill="#D4DBE1" transform="translate(204,211)"/>
<path d="M0 0 C2.4375 1.625 2.4375 1.625 4 4 C4.72125695 8.40768137 4.52001338 10.25937488 1.9375 13.9375 C-1 16 -1 16 -4.5 16.625 C-8.9297642 15.83397068 -10.39210172 14.63525215 -13 11 C-13.7446324 7.02862719 -13.37266878 5.55900317 -11.125 2.1875 C-7.38445041 -1.66306575 -5.14450674 -1.1530791 0 0 Z " fill="#22E2F6" transform="translate(414,470)"/>
<path d="M0 0 C4.08652806 1.36217602 5.41488708 2.28644553 7.375 6.125 C7.6791888 10.02622132 7.24073855 13.05947563 4.75 16.125 C1.34547997 17.55848212 -0.96548107 17.63861669 -4.625 17.125 C-8.30851539 14.53870196 -9.44227257 13.05524874 -10.3125 8.625 C-9.625 5.125 -9.625 5.125 -7.0625 2.125 C-3.625 0.125 -3.625 0.125 0 0 Z " fill="#22E2F7" transform="translate(103.625,468.875)"/>
<path d="M0 0 C1.8046875 0.6015625 1.8046875 0.6015625 3.8046875 2.2265625 C5.23816962 5.63108253 5.31830419 7.94204357 4.8046875 11.6015625 C2.21838946 15.28507789 0.73493624 16.41883507 -3.6953125 17.2890625 C-7.1953125 16.6015625 -7.1953125 16.6015625 -10.1953125 14.0390625 C-12.1953125 10.6015625 -12.1953125 10.6015625 -12.3203125 6.9765625 C-10.15392327 0.4773948 -6.44585295 -1.24052264 0 0 Z " fill="#22E2F7" transform="translate(481.1953125,401.3984375)"/>
<path d="M0 0 C3.80470451 0.7133821 5.41196019 1.67868421 8 4.5625 C9.0625 8 9.0625 8 9 11.5625 C7.23358828 14.36439446 5.96950178 16.07774911 3 17.5625 C-1.0130324 18.09757099 -2.53928033 17.89301628 -5.875 15.5 C-8 12.5625 -8 12.5625 -8.625 9.0625 C-7.67703424 3.75389177 -5.38444917 1.00958422 0 0 Z " fill="#22E2F7" transform="translate(34,400.4375)"/>
<path d="M0 0 C4.43024874 0.87022743 5.91370196 2.00398461 8.5 5.6875 C9.01361669 9.34701893 8.93348212 11.65797997 7.5 15.0625 C4.43447563 17.55323855 1.40122132 17.9916888 -2.5 17.6875 C-6.33855447 15.72738708 -7.26282398 14.39902806 -8.625 10.3125 C-8.5 6.6875 -8.5 6.6875 -6.5 3.25 C-3.5 0.6875 -3.5 0.6875 0 0 Z " fill="#22E2F7" transform="translate(477.5,93.3125)"/>
<path d="M0 0 C3.80470451 0.7133821 5.41196019 1.67868421 8 4.5625 C9.0625 8 9.0625 8 9 11.5625 C7.23358828 14.36439446 5.96950178 16.07774911 3 17.5625 C-1.0130324 18.09757099 -2.53928033 17.89301628 -5.875 15.5 C-8 12.5625 -8 12.5625 -8.625 9.0625 C-7.67703424 3.75389177 -5.38444917 1.00958422 0 0 Z " fill="#22E2F7" transform="translate(34,93.4375)"/>
<path d="M0 0 C4.4297642 0.79102932 5.89210172 1.98974785 8.5 5.625 C9.21235686 9.4242366 8.81263988 11.06224821 6.9375 14.4375 C3.73003157 17.31599731 1.7850666 17.70017661 -2.5 17.625 C-5.30189446 15.85858828 -7.01524911 14.59450178 -8.5 11.625 C-9.03507099 7.6119676 -8.83051628 6.08571967 -6.4375 2.75 C-3.5 0.625 -3.5 0.625 0 0 Z " fill="#22E2F7" transform="translate(409.5,25.375)"/>
<path d="M0 0 C4.4297642 0.79102932 5.89210172 1.98974785 8.5 5.625 C9.21235686 9.4242366 8.81263988 11.06224821 6.9375 14.4375 C3.73003157 17.31599731 1.7850666 17.70017661 -2.5 17.625 C-5.30189446 15.85858828 -7.01524911 14.59450178 -8.5 11.625 C-9.03507099 7.6119676 -8.83051628 6.08571967 -6.4375 2.75 C-3.5 0.625 -3.5 0.625 0 0 Z " fill="#22E2F7" transform="translate(102.5,25.375)"/>
<path d="M0 0 C2.87459336 1.99971712 4.62907801 3.48939028 5.484375 6.97265625 C5.73645855 10.71889787 5.30563428 12.64043025 2.875 15.5 C-0.51250333 17.26739304 -2.2335258 17.6277457 -6 17 C-8.875 15.5625 -8.875 15.5625 -11 13 C-11.71534153 9.85595859 -11.71534153 7.14404141 -11 4 C-7.79382821 0.13373402 -4.93752469 -0.92578588 0 0 Z " fill="#22E4F8" transform="translate(259,17)"/>
<path d="M0 0 C2.875 1.5 2.875 1.5 5 4 C5.7975483 9.02455429 5.82360163 10.83726829 2.875 15 C0 17 0 17 -3 17.625 C-7.14182881 16.762119 -8.56226471 15.44150865 -11 12 C-11.75517074 8.92450628 -11.51878636 7.26835406 -11 4 C-7.72794548 0.1505241 -4.96702569 -0.82783761 0 0 Z " fill="#22E4F9" transform="translate(259,478)"/>
<path d="M0 0 C3.48326597 0.85529699 4.97293913 2.60978164 6.97265625 5.484375 C7.59765625 8.484375 7.59765625 8.484375 6.97265625 11.484375 C4.97293913 14.35896836 3.48326597 16.11345301 0 16.96875 C-3.74624162 17.22083355 -5.667774 16.79000928 -8.52734375 14.359375 C-10.29473679 10.97187167 -10.65508945 9.2508492 -10.02734375 5.484375 C-7.61458248 0.85991589 -5.2803869 -0.35531575 0 0 Z " fill="#22E4F9" transform="translate(488.02734375,247.515625)"/>
<path d="M0 0 C2.99993115 2.54994148 3.85480459 4.12882756 4.5 8 C3.85480459 11.87117244 2.99993115 13.45005852 0 16 C-5.02455429 16.7975483 -6.83726829 16.82360163 -11 13.875 C-13 11 -13 11 -13.625 8 C-12.02810026 0.33488127 -6.90175478 -1.09551663 0 0 Z " fill="#22E4F9" transform="translate(30,248)"/>
</svg>
